# xmcd
#
# Track frame offsets:
#	150
#	15203
#	32149
#	54759
#	67146
#	86934
#	197650
#	215838
#	239138
#	266208
#	282072
#	313097
#
# Disc length: 4441 seconds
#
# Revision: 0
# Processed by: cddbd v1.5.2PL0 Copyright (c) Steve Scherf et al.
# Submitted via: audiograbber 1.83.01
#
DISCID=b511570c
DTITLE=Olaf Henning - Das Party-Album 2 (AR)
DYEAR=2007
DGENRE=Disco
TTITLE0=Komm gib mir deine Hand (Remix 2006)
TTITLE1=Lasso-Mix 2007
TTITLE2=Mallorca Hit-Mix
TTITLE3=M-M-M-Mädchen (Ich bin `ne kölsche Jung)
TTITLE4=Playa-Party-Mix
TTITLE5=Olaf Henning-Alarmstufe Rot Megamix
TTITLE6=Echt Klasse !
TTITLE7=Cowboy und Indianer (Party-Remix)
TTITLE8=Special-Tour-Mix
TTITLE9=Alarmstufe Rot (Remix 2001)
TTITLE10=Blinder Passagier (Mallorca-Mix)
TTITLE11=Bonustrack: Videoclip Ich bin nicht mehr dein Clown
EXTD=
EXTT0=
EXTT1=
EXTT2=
EXTT3=
EXTT4=
EXTT5=
EXTT6=
EXTT7=
EXTT8=
EXTT9=
EXTT10=
EXTT11=
PLAYORDER=
